{"asset":{"version":"2.0","generator":"Blockbench 4.8.3 glTF exporter"},"scenes":[{"nodes":[1,3,5,7,9,11],"name":"blockbench_export"}],"scene":0,"nodes":[{"name":"Head"},{"translation":[0,1.5,0],"name":"Head","mesh":0,"children":[0],"skin":0},{"name":"Body"},{"translation":[0,1.5,0],"name":"Body","mesh":1,"children":[2],"skin":1},{"name":"RightArm"},{"translation":[0.3125,1.375,0],"name":"RightArm","mesh":2,"children":[4],"skin":2},{"name":"LeftArm"},{"translation":[-0.3125,1.375,0],"name":"LeftArm","mesh":3,"children":[6],"skin":3},{"name":"RightLeg"},{"translation":[0.11875,0.75,0],"name":"RightLeg","mesh":4,"children":[8],"skin":4},{"name":"LeftLeg"},{"translation":[-0.11875,0.75,0],"name":"LeftLeg","mesh":5,"children":[10],"skin":5}],"bufferViews":[{"buffer":0,"byteOffset":0,"byteLength":576,"target":34962,"byteStride":12},{"buffer":0,"byteOffset":576,"byteLength":576,"target":34962,"byteStride":12},{"buffer":0,"byteOffset":1152,"byteLength":384,"target":34962,"byteStride":8},{"buffer":0,"byteOffset":1536,"byteLength":384,"target":34962,"byteStride":8},{"buffer":0,"byteOffset":1920,"byteLength":768,"target":34962,"byteStride":16},{"buffer":0,"byteOffset":2688,"byteLength":144,"target":34963},{"buffer":0,"byteOffset":2832,"byteLength":576,"target":34962,"byteStride":12},{"buffer":0,"byteOffset":3408,"byteLength":576,"target":34962,"byteStride":12},{"buffer":0,"byteOffset":3984,"byteLength":384,"target":34962,"byteStride":8},{"buffer":0,"byteOffset":4368,"byteLength":384,"target":34962,"byteStride":8},{"buffer":0,"byteOffset":4752,"byteLength":768,"target":34962,"byteStride":16},{"buffer":0,"byteOffset":5520,"byteLength":144,"target":34963},{"buffer":0,"byteOffset":5664,"byteLength":576,"target":34962,"byteStride":12},{"buffer":0,"byteOffset":6240,"byteLength":576,"target":34962,"byteStride":12},{"buffer":0,"byteOffset":6816,"byteLength":384,"target":34962,"byteStride":8},{"buffer":0,"byteOffset":7200,"byteLength":384,"target":34962,"byteStride":8},{"buffer":0,"byteOffset":7584,"byteLength":768,"target":34962,"byteStride":16},{"buffer":0,"byteOffset":8352,"byteLength":144,"target":34963},{"buffer":0,"byteOffset":8496,"byteLength":576,"target":34962,"byteStride":12},{"buffer":0,"byteOffset":9072,"byteLength":576,"target":34962,"byteStride":12},{"buffer":0,"byteOffset":9648,"byteLength":384,"target":34962,"byteStride":8},{"buffer":0,"byteOffset":10032,"byteLength":384,"target":34962,"byteStride":8},{"buffer":0,"byteOffset":10416,"byteLength":768,"target":34962,"byteStride":16},{"buffer":0,"byteOffset":11184,"byteLength":144,"target":34963},{"buffer":0,"byteOffset":11328,"byteLength":576,"target":34962,"byteStride":12},{"buffer":0,"byteOffset":11904,"byteLength":576,"target":34962,"byteStride":12},{"buffer":0,"byteOffset":12480,"byteLength":384,"target":34962,"byteStride":8},{"buffer":0,"byteOffset":12864,"byteLength":384,"target":34962,"byteStride":8},{"buffer":0,"byteOffset":13248,"byteLength":768,"target":34962,"byteStride":16},{"buffer":0,"byteOffset":14016,"byteLength":144,"target":34963},{"buffer":0,"byteOffset":14160,"byteLength":576,"target":34962,"byteStride":12},{"buffer":0,"byteOffset":14736,"byteLength":576,"target":34962,"byteStride":12},{"buffer":0,"byteOffset":15312,"byteLength":384,"target":34962,"byteStride":8},{"buffer":0,"byteOffset":15696,"byteLength":384,"target":34962,"byteStride":8},{"buffer":0,"byteOffset":16080,"byteLength":768,"target":34962,"byteStride":16},{"buffer":0,"byteOffset":16848,"byteLength":144,"target":34963},{"buffer":0,"byteOffset":16992,"byteLength":64},{"buffer":0,"byteOffset":17056,"byteLength":64},{"buffer":0,"byteOffset":17120,"byteLength":64},{"buffer":0,"byteOffset":17184,"byteLength":64},{"buffer":0,"byteOffset":17248,"byteLength":64},{"buffer":0,"byteOffset":17312,"byteLength":64}],"buffers":[{"byteLength":17376,"uri":"data:application/octet-stream;base64,"}],"accessors":[{"bufferView":0,"componentType":5126,"count":48,"max":[0.28125,0.53125,0.28125],"min":[-0.28125,-0.03125,-0.28125],"type":"VEC3"},{"bufferView":1,"componentType":5126,"count":48,"max":[1,1,1],"min":[-1,-1,-1],"type":"VEC3"},{"bufferView":2,"componentType":5126,"count":48,"max":[0.999755859375,0.249755859375],"min":[0.000244140625,0.000244140625],"type":"VEC2"},{"bufferView":3,"componentType":5123,"count":48,"max":[0,0,0,0],"min":[0,0,0,0],"type":"VEC4"},{"bufferView":4,"componentType":5126,"count":48,"max":[0,1,0,0],"min":[0,1,0,0],"type":"VEC4"},{"bufferView":5,"componentType":5123,"count":72,"max":[47],"min":[0],"type":"SCALAR"},{"bufferView":6,"componentType":5126,"count":48,"max":[0.265625,0.015625,0.140625],"min":[-0.265625,-0.765625,-0.140625],"type":"VEC3"},{"bufferView":7,"componentType":5126,"count":48,"max":[1,1,1],"min":[-1,-1,-1],"type":"VEC3"},{"bufferView":8,"componentType":5126,"count":48,"max":[0.624755859375,0.749755859375],"min":[0.250244140625,0.250244140625],"type":"VEC2"},{"bufferView":9,"componentType":5123,"count":48,"max":[0,0,0,0],"min":[0,0,0,0],"type":"VEC4"},{"bufferView":10,"componentType":5126,"count":48,"max":[0,1,0,0],"min":[0,1,0,0],"type":"VEC4"},{"bufferView":11,"componentType":5123,"count":72,"max":[47],"min":[0],"type":"SCALAR"},{"bufferView":12,"componentType":5126,"count":48,"max":[0.203125,0.140625,0.140625],"min":[-0.078125,-0.640625,-0.140625],"type":"VEC3"},{"bufferView":13,"componentType":5126,"count":48,"max":[1,1,1],"min":[-1,-1,-1],"type":"VEC3"},{"bufferView":14,"componentType":5126,"count":48,"max":[0.874755859375,0.749755859375],"min":[0.625244140625,0.250244140625],"type":"VEC2"},{"bufferView":15,"componentType":5123,"count":48,"max":[0,0,0,0],"min":[0,0,0,0],"type":"VEC4"},{"bufferView":16,"componentType":5126,"count":48,"max":[0,1,0,0],"min":[0,1,0,0],"type":"VEC4"},{"bufferView":17,"componentType":5123,"count":72,"max":[47],"min":[0],"type":"SCALAR"},{"bufferView":18,"componentType":5126,"count":48,"max":[0.078125,0.140625,0.140625],"min":[-0.203125,-0.640625,-0.140625],"type":"VEC3"},{"bufferView":19,"componentType":5126,"count":48,"max":[1,1,1],"min":[-1,-1,-1],"type":"VEC3"},{"bufferView":20,"componentType":5126,"count":48,"max":[0.999755859375,0.999755859375],"min":[0.500244140625,0.750244140625],"type":"VEC2"},{"bufferView":21,"componentType":5123,"count":48,"max":[0,0,0,0],"min":[0,0,0,0],"type":"VEC4"},{"bufferView":22,"componentType":5126,"count":48,"max":[0,1,0,0],"min":[0,1,0,0],"type":"VEC4"},{"bufferView":23,"componentType":5123,"count":72,"max":[47],"min":[0],"type":"SCALAR"},{"bufferView":24,"componentType":5126,"count":48,"max":[0.140625,0.015625,0.140625],"min":[-0.140625,-0.765625,-0.140625],"type":"VEC3"},{"bufferView":25,"componentType":5126,"count":48,"max":[1,1,1],"min":[-1,-1,-1],"type":"VEC3"},{"bufferView":26,"componentType":5126,"count":48,"max":[0.249755859375,0.749755859375],"min":[0.000244140625,0.250244140625],"type":"VEC2"},{"bufferView":27,"componentType":5123,"count":48,"max":[0,0,0,0],"min":[0,0,0,0],"type":"VEC4"},{"bufferView":28,"componentType":5126,"count":48,"max":[0,1,0,0],"min":[0,1,0,0],"type":"VEC4"},{"bufferView":29,"componentType":5123,"count":72,"max":[47],"min":[0],"type":"SCALAR"},{"bufferView":30,"componentType":5126,"count":48,"max":[0.140625,0.015625,0.140625],"min":[-0.140625,-0.765625,-0.140625],"type":"VEC3"},{"bufferView":31,"componentType":5126,"count":48,"max":[1,1,1],"min":[-1,-1,-1],"type":"VEC3"},{"bufferView":32,"componentType":5126,"count":48,"max":[0.499755859375,0.999755859375],"min":[0.000244140625,0.750244140625],"type":"VEC2"},{"bufferView":33,"componentType":5123,"count":48,"max":[0,0,0,0],"min":[0,0,0,0],"type":"VEC4"},{"bufferView":34,"componentType":5126,"count":48,"max":[0,1,0,0],"min":[0,1,0,0],"type":"VEC4"},{"bufferView":35,"componentType":5123,"count":72,"max":[47],"min":[0],"type":"SCALAR"},{"bufferView":36,"componentType":5126,"count":1,"max":[1,0,0,0,0,1,0,0,0,0,1,0,0,0,0,1],"min":[1,0,0,0,0,1,0,0,0,0,1,0,0,0,0,1],"type":"MAT4"},{"bufferView":37,"componentType":5126,"count":1,"max":[1,0,0,0,0,1,0,0,0,0,1,0,0,0,0,1],"min":[1,0,0,0,0,1,0,0,0,0,1,0,0,0,0,1],"type":"MAT4"},{"bufferView":38,"componentType":5126,"count":1,"max":[1,0,0,0,0,1,0,0,0,0,1,0,0,0,0,1],"min":[1,0,0,0,0,1,0,0,0,0,1,0,0,0,0,1],"type":"MAT4"},{"bufferView":39,"componentType":5126,"count":1,"max":[1,0,0,0,0,1,0,0,0,0,1,0,0,0,0,1],"min":[1,0,0,0,0,1,0,0,0,0,1,0,0,0,0,1],"type":"MAT4"},{"bufferView":40,"componentType":5126,"count":1,"max":[1,0,0,0,0,1,0,0,0,0,1,0,0,0,0,1],"min":[1,0,0,0,0,1,0,0,0,0,1,0,0,0,0,1],"type":"MAT4"},{"bufferView":41,"componentType":5126,"count":1,"max":[1,0,0,0,0,1,0,0,0,0,1,0,0,0,0,1],"min":[1,0,0,0,0,1,0,0,0,0,1,0,0,0,0,1],"type":"MAT4"}],"materials":[{"pbrMetallicRoughness":{"metallicFactor":0,"roughnessFactor":1,"baseColorTexture":{"index":0}},"alphaMode":"MASK","alphaCutoff":0.05,"doubleSided":true}],"textures":[{"sampler":0,"source":0}],"samplers":[{"magFilter":9728,"minFilter":9728,"wrapS":33071,"wrapT":33071}],"images":[{"mimeType":"image/png","uri":"data:image/png;base64,"}],"meshes":[{"primitives":[{"mode":4,"attributes":{"POSITION":0,"NORMAL":1,"TEXCOORD_0":2,"JOINTS_0":3,"WEIGHTS_0":4},"indices":5,"material":0}]},{"primitives":[{"mode":4,"attributes":{"POSITION":6,"NORMAL":7,"TEXCOORD_0":8,"JOINTS_0":9,"WEIGHTS_0":10},"indices":11,"material":0}]},{"primitives":[{"mode":4,"attributes":{"POSITION":12,"NORMAL":13,"TEXCOORD_0":14,"JOINTS_0":15,"WEIGHTS_0":16},"indices":17,"material":0}]},{"primitives":[{"mode":4,"attributes":{"POSITION":18,"NORMAL":19,"TEXCOORD_0":20,"JOINTS_0":21,"WEIGHTS_0":22},"indices":23,"material":0}]},{"primitives":[{"mode":4,"attributes":{"POSITION":24,"NORMAL":25,"TEXCOORD_0":26,"JOINTS_0":27,"WEIGHTS_0":28},"indices":29,"material":0}]},{"primitives":[{"mode":4,"attributes":{"POSITION":30,"NORMAL":31,"TEXCOORD_0":32,"JOINTS_0":33,"WEIGHTS_0":34},"indices":35,"material":0}]}],"skins":[{"inverseBindMatrices":36,"joints":[0],"skeleton":0},{"inverseBindMatrices":37,"joints":[2],"skeleton":2},{"inverseBindMatrices":38,"joints":[4],"skeleton":4},{"inverseBindMatrices":39,"joints":[6],"skeleton":6},{"inverseBindMatrices":40,"joints":[8],"skeleton":8},{"inverseBindMatrices":41,"joints":[10],"skeleton":10}]}